<svg width="65" height="65" viewBox="0 0 65 65" fill="none" xmlns="http://www.w3.org/2000/svg">
<circle cx="32.5" cy="32.5" r="32.5" fill="url(#paint0_linear_4021_42)"/>
<path d="M41.6644 23.8334H45.9978C45.9978 17.2137 40.0286 14.1944 35.1644 13.499V8.66669H30.8311V13.499C25.967 14.1944 19.9978 17.2137 19.9978 23.8334C19.9978 30.1474 25.7741 33.4304 30.8311 34.17V45.7667C27.6938 45.181 24.3311 43.3774 24.3311 40.1667H19.9978C19.9978 46.2077 25.252 49.7777 30.8311 50.5174V55.3334H35.1644V50.5034C40.0286 49.808 45.9978 46.7864 45.9978 40.1667C45.9978 33.547 40.0286 30.5277 35.1644 29.8324V18.2334C38.0461 18.791 41.6644 20.429 41.6644 23.8334ZM24.3311 23.8334C24.3311 20.429 27.9495 18.791 30.8311 18.2334V29.431C27.8606 28.8407 24.3311 27.093 24.3311 23.8334ZM41.6644 40.1667C41.6644 43.571 38.0461 45.209 35.1644 45.7667V34.5667C38.0461 35.1244 41.6644 36.7624 41.6644 40.1667Z" fill="white"/>
<defs>
<linearGradient id="paint0_linear_4021_42" x1="32.5" y1="0" x2="32.5" y2="65" gradientUnits="userSpaceOnUse">
<stop stop-color="#4BFF66"/>
<stop offset="1" stop-color="#2D993D"/>
</linearGradient>
</defs>
</svg>
