<svg width="114" height="114" viewBox="0 0 114 114" fill="none" xmlns="http://www.w3.org/2000/svg">
<circle cx="57" cy="57" r="57" fill="url(#paint0_linear_4001_282)"/>
<path d="M65.6647 49.3541H69.748C69.748 43.5619 64.1232 40.92 59.5397 40.3115V36.0833H55.4563V40.3115C50.8728 40.92 45.248 43.5619 45.248 49.3541C45.248 54.8788 50.6911 57.7515 55.4563 58.3987V68.5458C52.5 68.0333 49.3314 66.4551 49.3314 63.6458H45.248C45.248 68.9316 50.1991 72.0554 55.4563 72.7026V76.9166H59.5397V72.6903C64.1232 72.0819 69.748 69.438 69.748 63.6458C69.748 57.8535 64.1232 55.2116 59.5397 54.6032V44.4541C62.2551 44.942 65.6647 46.3753 65.6647 49.3541ZM49.3314 49.3541C49.3314 46.3753 52.741 44.942 55.4563 44.4541V54.252C52.6573 53.7355 49.3314 52.2063 49.3314 49.3541ZM65.6647 63.6458C65.6647 66.6245 62.2551 68.0578 59.5397 68.5458V58.7458C62.2551 59.2337 65.6647 60.667 65.6647 63.6458Z" fill="white"/>
<defs>
<linearGradient id="paint0_linear_4001_282" x1="57" y1="0" x2="57" y2="114" gradientUnits="userSpaceOnUse">
<stop stop-color="#4BFF66"/>
<stop offset="1" stop-color="#2D993D"/>
</linearGradient>
</defs>
</svg>
