<svg width="65" height="64" viewBox="0 0 65 64" fill="none" xmlns="http://www.w3.org/2000/svg">
<ellipse cx="32.5" cy="32" rx="32.5" ry="32" fill="url(#paint0_linear_4021_43)"/>
<path d="M40.2122 43.707C38.8688 44.4747 37.1415 44.8586 35.2223 44.8586C31.192 44.8586 28.3132 42.9394 26.394 39.2929H38.6768V34.6868H25.0506C24.8587 33.9192 24.8587 33.1514 24.8587 32.1919C24.8587 31.4242 24.8587 30.6565 24.8587 30.2727H38.6769V25.6667H26.0103C26.9698 23.7475 28.1213 22.2121 29.8486 21.0606C31.384 19.9091 33.3031 19.3333 35.4143 19.3333C37.3334 19.3333 39.2527 19.5252 40.5961 20.293C41.9395 21.0606 43.4749 22.2121 45.0103 23.9394L48.8486 19.1414C45.394 15.1111 40.9799 13 35.2223 13C31.384 13 28.1213 14.1515 25.0506 16.6464C21.98 18.9495 19.8688 22.0201 18.7173 25.8586H13.1516V30.0807H17.7577C17.7577 30.4646 17.7577 31.2323 17.7577 31.9999C17.7577 32.7676 17.7577 33.7272 17.9496 34.4948H13.1516V39.1009H19.1011C20.2526 42.7473 22.3637 45.6261 25.2425 47.7373C28.1213 49.8484 31.5759 51 35.2223 51C40.788 51 45.2021 49.0808 48.4647 44.8586L44.6263 40.2525C43.091 41.7879 41.5556 42.9394 40.2122 43.707Z" fill="white"/>
<defs>
<linearGradient id="paint0_linear_4021_43" x1="32.5" y1="0" x2="32.5" y2="79.1579" gradientUnits="userSpaceOnUse">
<stop stop-color="#FDA500"/>
<stop offset="1" stop-color="#976200"/>
</linearGradient>
</defs>
</svg>
