<svg width="114" height="114" viewBox="0 0 114 114" fill="none" xmlns="http://www.w3.org/2000/svg">
<circle cx="57" cy="57" r="57" fill="url(#paint0_linear_4001_285)"/>
<path d="M63.9848 68.2828C62.7474 68.9898 61.1565 69.3434 59.3888 69.3434C55.6767 69.3434 53.0252 67.5758 51.2575 64.2171H62.5706V59.9747H50.0202C49.8434 59.2676 49.8434 58.5605 49.8434 57.6767C49.8434 56.9697 49.8434 56.2626 49.8434 55.9091H62.5707V51.6667H50.904C51.7878 49.899 52.8484 48.4848 54.4393 47.4242C55.8535 46.3636 57.6212 45.8333 59.5656 45.8333C61.3333 45.8333 63.101 46.0101 64.3384 46.7172C65.5757 47.4242 66.9899 48.4848 68.404 50.0758L71.9393 45.6566C68.7575 41.9445 64.6918 40 59.3888 40C55.8535 40 52.8484 41.0606 50.0202 43.3586C47.1919 45.4798 45.2474 48.308 44.1868 51.8434H39.0605V55.7323H43.303C43.303 56.0858 43.303 56.7929 43.303 57.4999C43.303 58.207 43.303 59.0908 43.4797 59.7979H39.0605V64.0403H44.5403C45.6009 67.3989 47.5454 70.0504 50.1969 71.9948C52.8484 73.9393 56.0302 75 59.3888 75C64.5151 75 68.5807 73.2324 71.5858 69.3434L68.0504 65.101C66.6363 66.5152 65.2221 67.5758 63.9848 68.2828Z" fill="white"/>
<defs>
<linearGradient id="paint0_linear_4001_285" x1="57" y1="0" x2="57" y2="141" gradientUnits="userSpaceOnUse">
<stop stop-color="#FDA500"/>
<stop offset="1" stop-color="#976200"/>
</linearGradient>
</defs>
</svg>
