<svg width="114" height="114" viewBox="0 0 114 114" fill="none" xmlns="http://www.w3.org/2000/svg">
<circle cx="57" cy="57" r="57" fill="url(#paint0_linear_4001_283)"/>
<path d="M63.6329 50.2793V42.1673H82.0874V29.3672H30.8608V42.1673H49.3672V50.2793C33.8631 51.025 22.2236 54.1375 22.2236 57.866C22.2236 61.5945 33.8501 64.6876 49.3672 65.4527V92.2267H63.6329V65.4527C79.137 64.7135 90.7765 61.601 90.7765 57.866C90.7765 54.131 79.15 51.025 63.6329 50.2793ZM56.5 63.0276C39.712 63.0276 26.1013 60.4338 26.1013 57.3084C26.1013 54.6173 36.0159 52.3608 49.3543 51.7577V60.9202C51.6497 61.0239 54.036 61.0823 56.4871 61.0823C58.9382 61.0823 61.3374 61.0239 63.6199 60.9202V51.7577C76.9582 52.3608 86.8729 54.6173 86.8729 57.3084C86.8988 60.4662 73.2881 63.0276 56.5 63.0276Z" fill="white"/>
<defs>
<linearGradient id="paint0_linear_4001_283" x1="57" y1="0" x2="57" y2="137.5" gradientUnits="userSpaceOnUse">
<stop stop-color="#00B2FF"/>
<stop offset="1" stop-color="#006B99"/>
</linearGradient>
</defs>
</svg>
