<svg width="178" height="8" viewBox="0 0 178 8" fill="none" xmlns="http://www.w3.org/2000/svg">
<path d="M177.354 4.35355C177.549 4.15829 177.549 3.84171 177.354 3.64645L174.172 0.464466C173.976 0.269204 173.66 0.269204 173.464 0.464466C173.269 0.659728 173.269 0.976311 173.464 1.17157L176.293 4L173.464 6.82843C173.269 7.02369 173.269 7.34027 173.464 7.53553C173.66 7.7308 173.976 7.7308 174.172 7.53553L177.354 4.35355ZM0 4V4.5H1.00568V4V3.5H0V4ZM3.01705 4V4.5H5.02841V4V3.5H3.01705V4ZM7.03977 4V4.5H9.05114V4V3.5H7.03977V4ZM11.0625 4V4.5H13.0739V4V3.5H11.0625V4ZM15.0852 4V4.5H17.0966V4V3.5H15.0852V4ZM19.108 4V4.5H21.1193V4V3.5H19.108V4ZM23.1307 4V4.5H25.142V4V3.5H23.1307V4ZM27.1534 4V4.5H29.1648V4V3.5H27.1534V4ZM31.1761 4V4.5H33.1875V4V3.5H31.1761V4ZM35.1989 4V4.5H37.2102V4V3.5H35.1989V4ZM39.2216 4V4.5H41.233V4V3.5H39.2216V4ZM43.2443 4V4.5H45.2557V4V3.5H43.2443V4ZM47.2671 4V4.5H49.2784V4V3.5H47.2671V4ZM51.2898 4V4.5H53.3011V4V3.5H51.2898V4ZM55.3125 4V4.5H57.3239V4V3.5H55.3125V4ZM59.3352 4V4.5H61.3466V4V3.5H59.3352V4ZM63.358 4V4.5H65.3693V4V3.5H63.358V4ZM67.3807 4V4.5H69.392V4V3.5H67.3807V4ZM71.4034 4V4.5H73.4148V4V3.5H71.4034V4ZM75.4261 4V4.5H77.4375V4V3.5H75.4261V4ZM79.4488 4V4.5H81.4602V4V3.5H79.4488V4ZM83.4716 4V4.5H85.4829V4V3.5H83.4716V4ZM87.4943 4V4.5H89.5056V4V3.5H87.4943V4ZM91.517 4V4.5H93.5284V4V3.5H91.517V4ZM95.5397 4V4.5H97.5511V4V3.5H95.5397V4ZM99.5624 4V4.5H101.574V4V3.5H99.5624V4ZM103.585 4V4.5H105.597V4V3.5H103.585V4ZM107.608 4V4.5H109.619V4V3.5H107.608V4ZM111.631 4V4.5H113.642V4V3.5H111.631V4ZM115.653 4V4.5H117.665V4V3.5H115.653V4ZM119.676 4V4.5H121.687V4V3.5H119.676V4ZM123.699 4V4.5H125.71V4V3.5H123.699V4ZM127.721 4V4.5H129.733V4V3.5H127.721V4ZM131.744 4V4.5H133.756V4V3.5H131.744V4ZM135.767 4V4.5H137.778V4V3.5H135.767V4ZM139.79 4V4.5H141.801V4V3.5H139.79V4ZM143.812 4V4.5H145.824V4V3.5H143.812V4ZM147.835 4V4.5H149.847V4V3.5H147.835V4ZM151.858 4V4.5H153.869V4V3.5H151.858V4ZM155.881 4V4.5H157.892V4V3.5H155.881V4ZM159.903 4V4.5H161.915V4V3.5H159.903V4ZM163.926 4V4.5H165.937V4V3.5H163.926V4ZM167.949 4V4.5H169.96V4V3.5H167.949V4ZM171.972 4V4.5H173.983V4V3.5H171.972V4ZM175.994 4V4.5H177V4V3.5H175.994V4ZM177.354 4.35355C177.549 4.15829 177.549 3.84171 177.354 3.64645L174.172 0.464466C173.976 0.269204 173.66 0.269204 173.464 0.464466C173.269 0.659728 173.269 0.976311 173.464 1.17157L176.293 4L173.464 6.82843C173.269 7.02369 173.269 7.34027 173.464 7.53553C173.66 7.7308 173.976 7.7308 174.172 7.53553L177.354 4.35355ZM0 4V4.5H1.00568V4V3.5H0V4ZM3.01705 4V4.5H5.02841V4V3.5H3.01705V4ZM7.03977 4V4.5H9.05114V4V3.5H7.03977V4ZM11.0625 4V4.5H13.0739V4V3.5H11.0625V4ZM15.0852 4V4.5H17.0966V4V3.5H15.0852V4ZM19.108 4V4.5H21.1193V4V3.5H19.108V4ZM23.1307 4V4.5H25.142V4V3.5H23.1307V4ZM27.1534 4V4.5H29.1648V4V3.5H27.1534V4ZM31.1761 4V4.5H33.1875V4V3.5H31.1761V4ZM35.1989 4V4.5H37.2102V4V3.5H35.1989V4ZM39.2216 4V4.5H41.233V4V3.5H39.2216V4ZM43.2443 4V4.5H45.2557V4V3.5H43.2443V4ZM47.2671 4V4.5H49.2784V4V3.5H47.2671V4ZM51.2898 4V4.5H53.3011V4V3.5H51.2898V4ZM55.3125 4V4.5H57.3239V4V3.5H55.3125V4ZM59.3352 4V4.5H61.3466V4V3.5H59.3352V4ZM63.358 4V4.5H65.3693V4V3.5H63.358V4ZM67.3807 4V4.5H69.392V4V3.5H67.3807V4ZM71.4034 4V4.5H73.4148V4V3.5H71.4034V4ZM75.4261 4V4.5H77.4375V4V3.5H75.4261V4ZM79.4488 4V4.5H81.4602V4V3.5H79.4488V4ZM83.4716 4V4.5H85.4829V4V3.5H83.4716V4ZM87.4943 4V4.5H89.5056V4V3.5H87.4943V4ZM91.517 4V4.5H93.5284V4V3.5H91.517V4ZM95.5397 4V4.5H97.5511V4V3.5H95.5397V4ZM99.5624 4V4.5H101.574V4V3.5H99.5624V4ZM103.585 4V4.5H105.597V4V3.5H103.585V4ZM107.608 4V4.5H109.619V4V3.5H107.608V4ZM111.631 4V4.5H113.642V4V3.5H111.631V4ZM115.653 4V4.5H117.665V4V3.5H115.653V4ZM119.676 4V4.5H121.687V4V3.5H119.676V4ZM123.699 4V4.5H125.71V4V3.5H123.699V4ZM127.721 4V4.5H129.733V4V3.5H127.721V4ZM131.744 4V4.5H133.756V4V3.5H131.744V4ZM135.767 4V4.5H137.778V4V3.5H135.767V4ZM139.79 4V4.5H141.801V4V3.5H139.79V4ZM143.812 4V4.5H145.824V4V3.5H143.812V4ZM147.835 4V4.5H149.847V4V3.5H147.835V4ZM151.858 4V4.5H153.869V4V3.5H151.858V4ZM155.881 4V4.5H157.892V4V3.5H155.881V4ZM159.903 4V4.5H161.915V4V3.5H159.903V4ZM163.926 4V4.5H165.937V4V3.5H163.926V4ZM167.949 4V4.5H169.96V4V3.5H167.949V4ZM171.972 4V4.5H173.983V4V3.5H171.972V4ZM175.994 4V4.5H177V4V3.5H175.994V4Z" fill="white"/>
</svg>
