<svg width="63" height="8" viewBox="0 0 63 8" fill="none" xmlns="http://www.w3.org/2000/svg">
<path d="M62.3536 4.35355C62.5488 4.15829 62.5488 3.84171 62.3536 3.64645L59.1716 0.464466C58.9763 0.269204 58.6597 0.269204 58.4645 0.464466C58.2692 0.659728 58.2692 0.976311 58.4645 1.17157L61.2929 4L58.4645 6.82843C58.2692 7.02369 58.2692 7.34027 58.4645 7.53553C58.6597 7.7308 58.9763 7.7308 59.1716 7.53553L62.3536 4.35355ZM0 4V4.5H0.96875V4V3.5H0V4ZM2.90625 4V4.5H4.84375V4V3.5H2.90625V4ZM6.78125 4V4.5H8.71875V4V3.5H6.78125V4ZM10.6562 4V4.5H12.5938V4V3.5H10.6562V4ZM14.5312 4V4.5H16.4688V4V3.5H14.5312V4ZM18.4062 4V4.5H20.3438V4V3.5H18.4062V4ZM22.2812 4V4.5H24.2188V4V3.5H22.2812V4ZM26.1562 4V4.5H28.0938V4V3.5H26.1562V4ZM30.0312 4V4.5H31.9688V4V3.5H30.0312V4ZM33.9062 4V4.5H35.8438V4V3.5H33.9062V4ZM37.7812 4V4.5H39.7188V4V3.5H37.7812V4ZM41.6562 4V4.5H43.5938V4V3.5H41.6562V4ZM45.5312 4V4.5H47.4688V4V3.5H45.5312V4ZM49.4062 4V4.5H51.3438V4V3.5H49.4062V4ZM53.2812 4V4.5H55.2188V4V3.5H53.2812V4ZM57.1562 4V4.5H59.0938V4V3.5H57.1562V4ZM61.0312 4V4.5H62V4V3.5H61.0312V4ZM62.3536 4.35355C62.5488 4.15829 62.5488 3.84171 62.3536 3.64645L59.1716 0.464466C58.9763 0.269204 58.6597 0.269204 58.4645 0.464466C58.2692 0.659728 58.2692 0.976311 58.4645 1.17157L61.2929 4L58.4645 6.82843C58.2692 7.02369 58.2692 7.34027 58.4645 7.53553C58.6597 7.7308 58.9763 7.7308 59.1716 7.53553L62.3536 4.35355ZM0 4V4.5H0.96875V4V3.5H0V4ZM2.90625 4V4.5H4.84375V4V3.5H2.90625V4ZM6.78125 4V4.5H8.71875V4V3.5H6.78125V4ZM10.6562 4V4.5H12.5938V4V3.5H10.6562V4ZM14.5312 4V4.5H16.4688V4V3.5H14.5312V4ZM18.4062 4V4.5H20.3438V4V3.5H18.4062V4ZM22.2812 4V4.5H24.2188V4V3.5H22.2812V4ZM26.1562 4V4.5H28.0938V4V3.5H26.1562V4ZM30.0312 4V4.5H31.9688V4V3.5H30.0312V4ZM33.9062 4V4.5H35.8438V4V3.5H33.9062V4ZM37.7812 4V4.5H39.7188V4V3.5H37.7812V4ZM41.6562 4V4.5H43.5938V4V3.5H41.6562V4ZM45.5312 4V4.5H47.4688V4V3.5H45.5312V4ZM49.4062 4V4.5H51.3438V4V3.5H49.4062V4ZM53.2812 4V4.5H55.2188V4V3.5H53.2812V4ZM57.1562 4V4.5H59.0938V4V3.5H57.1562V4ZM61.0312 4V4.5H62V4V3.5H61.0312V4Z" fill="white"/>
</svg>
