<svg width="24" height="24" viewBox="0 0 24 24" fill="none" xmlns="http://www.w3.org/2000/svg">
<path d="M23.25 11.625C23.25 15.3468 20.2218 18.375 16.5 18.375H3.45444L5.75171 20.4426C6.05969 20.7195 6.08459 21.1937 5.80756 21.5017C5.65942 21.6661 5.4549 21.75 5.24982 21.75C5.07092 21.75 4.89166 21.6866 4.74829 21.5574L0.998291 18.1824C0.840271 18.0403 0.75 17.8378 0.75 17.625C0.75 17.4122 0.840271 17.2097 0.998291 17.0676L4.74829 13.6926C5.05591 13.415 5.53052 13.4403 5.80756 13.7483C6.08459 14.0563 6.05969 14.5305 5.75171 14.8074L3.45444 16.875H16.5C19.3949 16.875 21.75 14.5199 21.75 11.625C21.75 11.2108 22.0858 10.875 22.5 10.875C22.9142 10.875 23.25 11.2108 23.25 11.625ZM1.5 13.125C1.91418 13.125 2.25 12.7892 2.25 12.375C2.25 9.4801 4.6051 7.125 7.5 7.125H20.5456L18.2483 9.19244C17.9403 9.46966 17.9154 9.94391 18.1926 10.2517C18.3406 10.4163 18.5449 10.5 18.7504 10.5C18.9291 10.5 19.1085 10.4365 19.2517 10.3076L23.0017 6.93255C23.1599 6.79028 23.25 6.58758 23.25 6.375C23.25 6.16241 23.1599 5.95971 23.0017 5.81744L19.2517 2.44244C18.9437 2.1654 18.4695 2.19049 18.1926 2.49829C17.9154 2.80609 17.9403 3.28033 18.2483 3.55755L20.5456 5.625H7.5C3.77802 5.625 0.75 8.65301 0.75 12.375C0.75 12.7892 1.08582 13.125 1.5 13.125Z" fill="white"/>
</svg>
