<svg width="363" height="60" viewBox="0 0 363 60" fill="none" xmlns="http://www.w3.org/2000/svg">
<path d="M118.315 43.5523L127.483 15.7211H137.24L123.815 52H112.683L99.3238 15.7211H109.147L118.315 43.5523Z" fill="white"/>
<path d="M156.534 52.5893C153.041 52.5893 149.898 51.8253 147.104 50.2973C144.31 48.7257 142.105 46.521 140.49 43.6833C138.918 40.8456 138.133 37.5713 138.133 33.8605C138.133 30.1497 138.94 26.8754 140.556 24.0377C142.215 21.2 144.463 19.0172 147.301 17.4892C150.138 15.9175 153.303 15.1317 156.796 15.1317C160.288 15.1317 163.454 15.9175 166.291 17.4892C169.129 19.0172 171.356 21.2 172.971 24.0377C174.63 26.8754 175.459 30.1497 175.459 33.8605C175.459 37.5713 174.608 40.8456 172.905 43.6833C171.246 46.521 168.976 48.7257 166.095 50.2973C163.257 51.8253 160.07 52.5893 156.534 52.5893ZM156.534 44.6001C158.193 44.6001 159.743 44.2072 161.183 43.4214C162.668 42.5919 163.847 41.3695 164.72 39.7542C165.593 38.1389 166.029 36.1743 166.029 33.8605C166.029 30.4116 165.113 27.7704 163.279 25.9368C161.489 24.0595 159.284 23.1209 156.665 23.1209C154.046 23.1209 151.841 24.0595 150.051 25.9368C148.305 27.7704 147.432 30.4116 147.432 33.8605C147.432 37.3094 148.283 39.9725 149.985 41.8497C151.732 43.6833 153.915 44.6001 156.534 44.6001Z" fill="white"/>
<path d="M189.388 3.54077V52H180.22V3.54077H189.388Z" fill="white"/>
<path d="M207.155 23.2519V40.802C207.155 42.0244 207.439 42.9193 208.007 43.4869C208.618 44.0107 209.622 44.2727 211.019 44.2727H215.275V52H209.513C201.785 52 197.922 48.2455 197.922 40.7365V23.2519H193.6V15.7211H197.922V6.74955H207.155V15.7211H215.275V23.2519H207.155Z" fill="white"/>
<path d="M254.154 15.7211V52H244.92V47.416C243.742 48.9876 242.192 50.2319 240.271 51.1487C238.394 52.0218 236.342 52.4584 234.115 52.4584C231.278 52.4584 228.767 51.869 226.584 50.6903C224.402 49.4679 222.677 47.6998 221.411 45.3859C220.189 43.0285 219.577 40.2344 219.577 37.0038V15.7211H228.745V35.6941C228.745 38.5755 229.466 40.802 230.906 42.3736C232.347 43.9016 234.312 44.6656 236.8 44.6656C239.332 44.6656 241.319 43.9016 242.759 42.3736C244.2 40.802 244.92 38.5755 244.92 35.6941V15.7211H254.154Z" fill="white"/>
<path d="M295.484 15.7211V52H286.25V47.416C285.072 48.9876 283.522 50.2319 281.601 51.1487C279.724 52.0218 277.672 52.4584 275.445 52.4584C272.608 52.4584 270.097 51.869 267.914 50.6903C265.732 49.4679 264.007 47.6998 262.741 45.3859C261.519 43.0285 260.907 40.2344 260.907 37.0038V15.7211H270.075V35.6941C270.075 38.5755 270.796 40.802 272.236 42.3736C273.677 43.9016 275.642 44.6656 278.13 44.6656C280.662 44.6656 282.649 43.9016 284.089 42.3736C285.53 40.802 286.25 38.5755 286.25 35.6941V15.7211H295.484Z" fill="white"/>
<path d="M347.619 15.1972C352.072 15.1972 355.652 16.5724 358.358 19.3228C361.109 22.0295 362.484 25.8276 362.484 30.7172V52H353.316V31.9614C353.316 29.1237 352.596 26.9627 351.155 25.4784C349.714 23.9504 347.75 23.1864 345.261 23.1864C342.773 23.1864 340.787 23.9504 339.302 25.4784C337.862 26.9627 337.141 29.1237 337.141 31.9614V52H327.973V31.9614C327.973 29.1237 327.253 26.9627 325.812 25.4784C324.372 23.9504 322.407 23.1864 319.919 23.1864C317.386 23.1864 315.378 23.9504 313.894 25.4784C312.453 26.9627 311.733 29.1237 311.733 31.9614V52H302.565V15.7211H311.733V20.1086C312.912 18.5806 314.418 17.38 316.251 16.5069C318.129 15.6337 320.18 15.1972 322.407 15.1972C325.245 15.1972 327.777 15.8084 330.003 17.0308C332.23 18.2095 333.954 19.9121 335.177 22.1386C336.355 20.0431 338.058 18.3623 340.284 17.0962C342.555 15.8302 344.999 15.1972 347.619 15.1972Z" fill="white"/>
<path d="M41.334 11.1736L48.8623 0.386475H82.6689L60.5273 32.1101L55.5967 24.9695L66.7471 8.78784H53.0557L46.4688 18.3308L58.2021 35.4421L41.334 59.613L24.4648 35.4412L36.2002 18.3308L29.6133 8.78784H15.9219L27.0723 24.9695L22.1396 32.1101L0 0.386475H33.8057L41.334 11.1736ZM34.4365 35.446L41.334 45.196L48.2324 35.446L41.334 25.6951L34.4365 35.446Z" fill="white"/>
</svg>
