<svg width="36" height="36" viewBox="0 0 36 36" fill="none" xmlns="http://www.w3.org/2000/svg">
<g clip-path="url(#clip0_2033_763)">
<path d="M35.9909 35.9998L35.9999 35.9983V22.7953C35.9999 16.3363 34.6094 11.3608 27.0584 11.3608C23.4284 11.3608 20.9924 13.3528 19.9979 15.2413H19.8929V11.9638H12.7334V35.9983H20.1884V24.0973C20.1884 20.9638 20.7824 17.9338 24.6629 17.9338C28.4864 17.9338 28.5434 21.5098 28.5434 24.2983V35.9998H35.9909Z" fill="white"/>
<path d="M0.594238 11.9653H8.05824V35.9998H0.594238V11.9653Z" fill="white"/>
<path d="M4.323 0C1.9365 0 0 1.9365 0 4.323C0 6.7095 1.9365 8.6865 4.323 8.6865C6.7095 8.6865 8.646 6.7095 8.646 4.323C8.6445 1.9365 6.708 0 4.323 0Z" fill="white"/>
</g>
<defs>
<clipPath id="clip0_2033_763">
<rect width="36" height="36" fill="white"/>
</clipPath>
</defs>
</svg>
