<svg width="312" height="85" viewBox="0 0 312 85" fill="none" xmlns="http://www.w3.org/2000/svg">
<path d="M100.693 54.7062L108.489 31.0402H116.786L105.371 61.8895H95.9046L84.5449 31.0402H92.8976L100.693 54.7062ZM133.193 62.3907C130.223 62.3907 127.55 61.741 125.174 60.4417C122.798 59.1053 120.924 57.2306 119.55 54.8176C118.214 52.4046 117.546 49.6203 117.546 46.4649C117.546 43.3094 118.232 40.5251 119.606 38.1121C121.017 35.6991 122.928 33.843 125.341 32.5437C127.754 31.2072 130.446 30.539 133.416 30.539C136.386 30.539 139.077 31.2072 141.49 32.5437C143.903 33.843 145.796 35.6991 147.17 38.1121C148.58 40.5251 149.286 43.3094 149.286 46.4649C149.286 49.6203 148.562 52.4046 147.114 54.8176C145.703 57.2306 143.773 59.1053 141.323 60.4417C138.91 61.741 136.2 62.3907 133.193 62.3907ZM133.193 55.5971C134.604 55.5971 135.921 55.263 137.147 54.5948C138.409 53.8895 139.411 52.85 140.154 51.4765C140.896 50.1029 141.267 48.4324 141.267 46.4649C141.267 43.5321 140.488 41.2862 138.928 39.727C137.406 38.1307 135.532 37.3326 133.304 37.3326C131.077 37.3326 129.202 38.1307 127.68 39.727C126.195 41.2862 125.453 43.5321 125.453 46.4649C125.453 49.3976 126.177 51.6621 127.624 53.2584C129.109 54.8176 130.966 55.5971 133.193 55.5971ZM161.13 20.6828V61.8895H153.334V20.6828H161.13ZM176.238 37.4439V52.3674C176.238 53.4069 176.479 54.1679 176.962 54.6505C177.482 55.096 178.336 55.3187 179.524 55.3187H183.143V61.8895H178.243C171.672 61.8895 168.387 58.6969 168.387 52.3117V37.4439H164.711V31.0402H168.387V23.4114H176.238V31.0402H183.143V37.4439H176.238ZM216.203 31.0402V61.8895H208.351V57.9916C207.349 59.328 206.031 60.386 204.398 61.1656C202.801 61.9081 201.057 62.2793 199.163 62.2793C196.75 62.2793 194.616 61.7782 192.76 60.7758C190.903 59.7364 189.437 58.2329 188.36 56.2654C187.321 54.2607 186.801 51.8848 186.801 49.1377V31.0402H194.597V48.024C194.597 50.4742 195.21 52.3674 196.435 53.7039C197.66 55.0032 199.33 55.6528 201.446 55.6528C203.599 55.6528 205.289 55.0032 206.514 53.7039C207.739 52.3674 208.351 50.4742 208.351 48.024V31.0402H216.203ZM251.347 31.0402V61.8895H243.496V57.9916C242.493 59.328 241.176 60.386 239.542 61.1656C237.946 61.9081 236.201 62.2793 234.308 62.2793C231.895 62.2793 229.76 61.7782 227.904 60.7758C226.048 59.7364 224.581 58.2329 223.505 56.2654C222.465 54.2607 221.946 51.8848 221.946 49.1377V31.0402H229.742V48.024C229.742 50.4742 230.354 52.3674 231.579 53.7039C232.804 55.0032 234.475 55.6528 236.591 55.6528C238.744 55.6528 240.433 55.0032 241.658 53.7039C242.883 52.3674 243.496 50.4742 243.496 48.024V31.0402H251.347ZM295.68 30.5947C299.466 30.5947 302.51 31.7641 304.812 34.1028C307.151 36.4045 308.32 39.6342 308.32 43.792V61.8895H300.524V44.85C300.524 42.437 299.912 40.5994 298.687 39.3372C297.462 38.0379 295.791 37.3882 293.675 37.3882C291.559 37.3882 289.87 38.0379 288.608 39.3372C287.383 40.5994 286.77 42.437 286.77 44.85V61.8895H278.974V44.85C278.974 42.437 278.362 40.5994 277.137 39.3372C275.912 38.0379 274.241 37.3882 272.125 37.3882C269.972 37.3882 268.264 38.0379 267.002 39.3372C265.777 40.5994 265.164 42.437 265.164 44.85V61.8895H257.369V31.0402H265.164V34.7711C266.167 33.4717 267.448 32.4509 269.007 31.7084C270.603 30.9659 272.348 30.5947 274.241 30.5947C276.654 30.5947 278.807 31.1144 280.701 32.1539C282.594 33.1562 284.06 34.604 285.1 36.4973C286.102 34.7154 287.55 33.2861 289.443 32.2096C291.373 31.133 293.452 30.5947 295.68 30.5947Z" fill="white"/>
<path d="M35.2345 27.3943L41.6359 18.2214H70.3829L51.5548 45.1989L47.3624 39.1277L56.8439 25.3679H45.2013L39.6007 33.4821L49.5782 48.031L35.2345 68.5847L20.8898 48.031L30.8683 33.4821L25.2677 25.3679H13.6251L23.1066 39.1277L18.9132 45.1989L0.0860596 18.2214H28.8331L35.2345 27.3943ZM29.3693 48.0339L35.2345 56.3249L41.0997 48.0339L35.2345 39.7429L29.3693 48.0339Z" fill="#664BFF"/>
</svg>
