<svg width="24" height="24" viewBox="0 0 24 24" fill="none" xmlns="http://www.w3.org/2000/svg">
<g clip-path="url(#clip0_129_1514)">
<path d="M12 24C18.6274 24 24 18.6274 24 12C24 5.37258 18.6274 0 12 0C5.37258 0 0 5.37258 0 12C0 18.6274 5.37258 24 12 24Z" fill="#59AF99"/>
<path d="M13.2461 10.5229V9.10572H16.4705V6.87012H7.52207V9.10572H10.7549V10.5229C8.04647 10.6537 6.01367 11.1973 6.01367 11.8429C6.01367 12.4885 8.04407 13.0345 10.7549 13.1629V17.8429H13.2461V13.1629C15.9545 13.0333 17.9873 12.4897 17.9873 11.8429C17.9873 11.1961 15.9605 10.6537 13.2461 10.5229ZM12.0005 12.7501C9.06767 12.7501 6.69047 12.2965 6.69047 11.7505C6.69047 11.2813 8.42207 10.8865 10.7525 10.7809V12.3817C11.1533 12.3997 11.5697 12.4105 11.9981 12.4105C12.4265 12.4105 12.8453 12.3997 13.2437 12.3817V10.7809C15.5741 10.8865 17.3057 11.2813 17.3057 11.7505C17.3105 12.3025 14.9333 12.7501 12.0005 12.7501Z" fill="white"/>
</g>
<defs>
<clipPath id="clip0_129_1514">
<rect width="24" height="24" fill="white"/>
</clipPath>
</defs>
</svg>
