<svg width="39" height="38" viewBox="0 0 39 38" fill="none" xmlns="http://www.w3.org/2000/svg">
<g clip-path="url(#clip0_2033_753)">
<path d="M28.4491 22.6529L28.4345 22.7717C24.8611 21.0364 24.4873 20.8052 24.0258 21.4797C23.7057 21.9468 22.773 23.006 22.4918 23.3195C22.2075 23.6283 21.9247 23.652 21.4421 23.4383C20.9546 23.2008 19.3897 22.702 17.5372 21.087C16.0942 19.8283 15.1257 18.2845 14.8397 17.8095C14.3636 17.0084 15.3597 16.8944 16.2665 15.2224C16.429 14.8899 16.3461 14.6286 16.2258 14.3927C16.104 14.1552 15.1338 11.8277 14.7276 10.8999C14.3376 9.97519 13.9362 10.0924 13.6356 10.0924C12.6996 10.0132 12.0155 10.0259 11.4126 10.637C8.78985 13.4459 9.45122 16.3434 11.6953 19.4245C16.1056 25.0485 18.4553 26.084 22.7519 27.5217C23.9121 27.8811 24.97 27.8304 25.8068 27.7133C26.7396 27.5692 28.6782 26.5717 29.0828 25.4554C29.4972 24.3392 29.4972 23.4129 29.3753 23.1992C29.2551 22.9854 28.9366 22.8667 28.4491 22.6529Z" fill="white"/>
<path d="M33.345 5.46111C20.8504 -6.3078 0.17225 2.22795 0.164125 18.8308C0.164125 22.1494 1.05625 25.3858 2.756 28.2437L0 38.0002L10.2944 35.3845C23.14 42.1454 38.9935 33.1679 39 18.8403C39 13.8116 36.985 9.07903 33.3206 5.52286L33.345 5.46111ZM35.7533 18.788C35.7435 30.8736 22.1276 38.4214 11.3587 32.2527L10.7738 31.9139L4.68 33.4576L6.31313 27.6864L5.92475 27.0926C-0.77675 16.698 6.9225 3.11303 19.617 3.11303C23.9297 3.11303 27.9776 4.75178 31.0261 7.72053C34.073 10.6639 35.7533 14.608 35.7533 18.788Z" fill="white"/>
</g>
<defs>
<clipPath id="clip0_2033_753">
<rect width="39" height="38" fill="white"/>
</clipPath>
</defs>
</svg>
