<svg width="33" height="33" viewBox="0 0 33 33" fill="none" xmlns="http://www.w3.org/2000/svg">
<g clip-path="url(#clip0_467_216)">
<path d="M24.0723 19.672L24.0599 19.7751C21.0363 18.2681 20.7201 18.0674 20.3296 18.6531C20.0587 19.0587 19.2694 19.9786 19.0316 20.2509C18.7909 20.519 18.5517 20.5396 18.1433 20.354C17.7308 20.1477 16.4067 19.7146 14.8392 18.3121C13.6182 17.219 12.7987 15.8784 12.5567 15.4659C12.1538 14.7701 12.9967 14.6711 13.7639 13.2191C13.9014 12.9304 13.8313 12.7035 13.7296 12.4986C13.6264 12.2924 12.8056 10.2711 12.4618 9.46537C12.1318 8.66237 11.7922 8.76412 11.5378 8.76412C10.7458 8.69537 10.1669 8.70637 9.65681 9.23712C7.43756 11.6764 7.99719 14.1926 9.89606 16.8684C13.6278 21.7524 15.6161 22.6516 19.2516 23.9001C20.2333 24.2122 21.1284 24.1682 21.8366 24.0665C22.6258 23.9414 24.2662 23.0751 24.6086 22.1057C24.9592 21.1364 24.9592 20.332 24.8561 20.1464C24.7543 19.9607 24.4848 19.8576 24.0723 19.672Z" fill="white"/>
<path d="M28.215 4.74297C17.6426 -5.47741 0.14575 1.93522 0.138875 16.3535C0.138875 19.2355 0.89375 22.046 2.332 24.5278L0 33.0006L8.71062 30.7291C19.58 36.6003 32.9945 28.8041 33 16.3617C33 11.9947 31.295 7.88485 28.1944 4.7966L28.215 4.74297ZM30.2528 16.3163C30.2445 26.8117 18.7234 33.3663 9.61125 28.0093L9.11625 27.7151L3.96 29.0557L5.34188 24.0438L5.01325 23.5282C-0.65725 14.5013 5.8575 2.70384 16.599 2.70384C20.2482 2.70384 23.6734 4.12697 26.2529 6.7051C28.831 9.26122 30.2528 12.6863 30.2528 16.3163Z" fill="white"/>
</g>
<defs>
<clipPath id="clip0_467_216">
<rect width="33" height="33" fill="white"/>
</clipPath>
</defs>
</svg>
